<svg xmlns="http://www.w3.org/2000/svg" width="171" height="56.1"><g data-name="Grupo 52" clip-path="url(&quot;#a&quot;)"><path d="M18.246.102c-1.908.178-4.169.814-6.053 1.706-4.58 2.184-8.491 6.577-10.47 11.772-3.038 7.948-2.013 16.934 2.71 23.7 1.036 1.483 3.968 4.37 5.452 5.374 1.99 1.337 4.416 2.33 6.89 2.82 1.601.313 4.357.346 5.97.067 8.197-1.416 14.673-8.238 16.57-17.424 1.731-8.45-.872-17.324-6.702-22.843C29.398 2.231 25.643.503 21.38.091c-1.355-.123-1.601-.123-3.133.011m.895 2.107c.047.278.141 1.092.224 1.805l.142 1.316h.4c.448 0 .423.056.636-1.839.223-1.94.188-1.85.754-1.773 1.024.123 2.002.28 2.096.334.14.09-.083.424-.801 1.183-.589.624-1.46 1.917-1.46 2.162 0 .056.165.19.353.29.2.1.353.156.353.111 0-.211 1.272-1.404 1.978-1.884.436-.278.99-.69 1.225-.903l.436-.39 1.12.524c.623.279 1.13.558 1.13.614 0 .111-.872.701-1.473.98-.259.123-.942.369-1.53.535-1.002.29-2.415.88-2.415 1.015 0 .055.224.501.294.58.024.022.542-.112 1.155-.301.612-.19 1.66-.424 2.331-.513 1.532-.234 2.367-.446 3.074-.814l.566-.279.906.78c.495.424.919.826.954.904.024.067-.259.211-.647.323-.589.167-1.048.19-3.24.167-1.99-.033-2.778 0-3.579.145-.578.1-1.072.2-1.107.223-.048.023-.06.19-.036.357l.06.312h1.895c1.473 0 2.261.056 3.486.268 1.531.256 2.379.267 4.534.1.319-.033.412.056 1.037.914 1.366 1.884 2.661 4.705 3.333 7.235.577 2.196.706 3.345.706 6.198 0 2.788-.13 3.991-.66 6.02-.376 1.46-.588 2.007-.706 1.817-.271-.468-3.391-7.603-3.345-7.647.036-.034.389-.201.802-.368.4-.167.741-.38.753-.457.012-.078-.353-.401-.824-.702l-.848-.569-.035-1.16c-.024-.68.011-1.192.082-1.26.07-.066.459-.11.86-.1 1.095.023 1.236-.122.447-.467-.354-.157-.848-.29-1.084-.29-.377 0-.447-.034-.459-.257-.011-.234-.011-.234-.105.034-.048.156-.106 1.003-.106 1.895l-.012 1.616-.895.591c-1.013.691-1.013.725.082 1.193.412.167.683.357.66.424-.036.078-.707 1.605-1.485 3.41-.788 1.807-1.448 3.3-1.472 3.323-.023.023-.4-.947-.824-2.152-.424-1.215-.766-2.218-.742-2.23.012-.01.436-.2.942-.411.495-.224.907-.47.907-.547 0-.078-.447-.435-1-.802l-1.002-.658v-1.717l.824-.357c.472-.2.825-.413.825-.502 0-.089-.365-.4-.813-.702l-.8-.535-.071-1.617c-.035-.98-.024-1.66.047-1.728.07-.055.47-.1.907-.089.694.022 1.248-.089 1.083-.222-.235-.179-1.354-.524-1.695-.524-.307 0-.425-.045-.425-.179 0-.089-.046-.134-.117-.1-.071.044-.119.758-.119 1.773 0 2.62.013 2.585-.953 3.232-.447.301-.813.602-.813.68 0 .067.377.29.825.502l.824.379v1.717l-.93.624c-.518.334-.966.658-1.001.713-.106.179.117.346.919.68.435.19.777.39.753.447-.012.056-1.119 1.248-2.45 2.63a233.946 233.946 0 0 0-2.555 2.698c-.07.09-.353.19-.613.223-.412.056-.482.1-.482.335 0 .178.117.323.353.457.189.1.412.334.483.513.212.457 1.154 1.337 1.825 1.672l.577.301-1-.067c-.554-.045-1.85-.19-2.886-.346-1.037-.144-2.673-.368-3.651-.501a47.298 47.298 0 0 1-1.943-.28c-.094-.032.094-.166.471-.311 1.19-.446 2.12-1.193 2.59-2.074.083-.156.33-.423.543-.59.223-.179.4-.39.4-.48 0-.178-.46-.38-.895-.38-.282 0-.282-.01-.282-1.047v-1.037l.47-.078c.26-.033.613-.033.766 0 .318.078.883-.022.883-.156 0-.145-1.236-.58-1.684-.602-.27-.01-.495-.089-.553-.19-.07-.111-.107.402-.118 1.461v1.65H16.103l-.07-1.595c-.142-2.82-.154-2.73.505-4.046.648-1.315.66-1.315 1.555-.747.236.145.542.257.672.235.223-.034.211-.068-.177-.57-.236-.3-.577-.624-.766-.724-.247-.133-.317-.245-.27-.401.047-.145.023-.178-.071-.123-.083.045-.447.691-.824 1.438l-.672 1.349-.094-1.26c-.118-1.694-.295-1.382-.295.535v1.505l-1.083 2.152c-.588 1.182-1.119 2.107-1.165 2.062-.048-.055-.484-1.014-.978-2.151l-.883-2.063-.083-1.761c-.047-.97-.117-1.717-.177-1.672-.046.044-.106.836-.129 1.761-.047 1.439-.094 1.762-.33 2.264-.153.322-.306.546-.365.5-.047-.043-.412-.79-.8-1.638-.66-1.427-.72-1.616-.72-2.352v-.802l.696-.29c.377-.156.73-.335.765-.402.047-.067-.259-.357-.683-.646l-.777-.535v-3.49l.353-.067c.2-.033.506-.033.706 0 .377.078.943-.022.943-.156 0-.156-1.237-.58-1.672-.58-.389 0-.448-.033-.46-.256 0-.234-.011-.234-.105-.022-.06.122-.106 1.193-.106 2.374l-.012 2.14-.766.525c-.424.29-.766.58-.766.646 0 .067.319.268.707.446l.707.324v.824c0 .803-.035.903-1.378 3.902-1.319 2.932-1.39 3.055-1.519 2.743a6.72 6.72 0 0 1-.224-.68c-.071-.346-.059-.368.26-.368.176 0 .411-.045.494-.1.188-.112-.024-.19-.683-.257-.342-.034-.412-.234-.53-1.37l-.082-.792.86-.38c.47-.211.847-.446.847-.501 0-.067-.377-.368-.836-.67-.836-.557-.848-.557-.848-1.07l-.012-.513.695-.29c.377-.155.73-.334.765-.4.048-.067-.259-.346-.66-.625l-.741-.513-.07-.802c-.036-.446-.013-.847.035-.914.058-.056.447-.112.86-.112.411 0 .776-.033.824-.078.14-.123-.896-.558-1.378-.58-.283 0-.448-.067-.448-.155 0-.078-.047-.112-.118-.078-.07.044-.117.612-.117 1.348v1.271l-.766.524c-.424.29-.765.58-.765.647 0 .067.318.267.706.446l.707.323v.501c0 .502-.011.524-.824 1.06-.46.3-.825.602-.825.68 0 .066.377.29.825.501l.824.38-.011.612c0 .346-.071.825-.154 1.07-.117.402-.177.457-.577.502-.553.067-.624.268-.106.312.436.045.447.112.165 1.082-.189.624-.224.669-.577.703-.424.044-.483-.08-.79-1.595-.494-2.43-.635-6.12-.317-8.194.589-3.935 1.837-7.224 3.85-10.122.766-1.126.802-1.16 1.155-1.092 1.095.211 2.991.189 4.428-.034 1.79-.29 3.968-.412 4.793-.268l.613.111.082-.322c.082-.413.024-.468-.718-.659-.425-.11-1.449-.155-3.592-.166-2.862-.012-3.64-.078-4.122-.38-.141-.089-.059-.211.47-.724.354-.346.79-.736.979-.858.317-.213.317-.213.706 0 .553.323 1.73.635 3.192.858.717.1 1.766.334 2.355.513l1.06.334.211-.256c.119-.145.213-.29.213-.324 0-.144-1.025-.58-2.497-1.059-.86-.279-1.754-.613-1.979-.736-.494-.278-.942-.646-.942-.78 0-.044.483-.312 1.072-.602l1.083-.502.366.324c.2.178.694.535 1.094.792.754.468 1.779 1.382 2.109 1.85.188.278.212.278.848-.123.117-.067-.801-1.483-1.272-1.984-.742-.78-1.06-1.182-1.06-1.349 0-.078.353-.19.919-.267.494-.078.989-.157 1.083-.179.507-.1.648-.011.718.502m8.315 18.138c-.035.022-.283.033-.554.01l-.494-.033.506-.356.518-.346.035.335c.024.178.012.356-.011.39m1.566-.023c0 .034-.236.056-.53.056-.53 0-.53 0-.53-.39v-.401l.53.345c.294.19.53.368.53.39m-20.61-.223c0 .246-.046.279-.435.279l-.447-.011.353-.268c.447-.345.53-.345.53 0m.99-.044c.234.133.423.256.423.279 0 .022-.212.044-.471.044-.424 0-.471-.033-.471-.279 0-.334 0-.334.518-.044M4.315 21.07c-.06.056-.295.09-.507.067l-.4-.033.47-.312c.46-.301.472-.301.507-.068.024.135-.011.29-.07.346m.965-.234c.236.134.424.256.424.28 0 .021-.212.043-.47.043-.425 0-.472-.033-.472-.278 0-.335 0-.335.518-.045m4.263-.033c-.035.056-.258.156-.518.234-.412.133-.506.122-.918-.078l-.46-.235.978-.01c.541 0 .954.044.918.089m19.243-.034c0 .034-.247.168-.541.279l-.53.223-.554-.279-.553-.268 1.095-.01c.589 0 1.083.022 1.083.055m3.97 1.249c-.037.022-.283.033-.566.011l-.518-.033.53-.369.53-.367.035.345c.024.2.012.38-.012.413m1.296-.167c.177.19.164.2-.295.2-.412 0-.495-.033-.495-.211 0-.123-.035-.302-.082-.413-.07-.178-.047-.167.306.022.212.112.46.301.566.402m-28.63-.268c-.035.056-.258.156-.518.234-.412.134-.506.123-.918-.078l-.46-.234.978-.011c.542 0 .954.044.919.09m28.193 1.136c-.519.268-.648.268-1.237.011l-.47-.212 1.059-.01h1.06l-.412.211Zm-29.36 1.416c-.035.022-.294.034-.565.011l-.518-.033.53-.357.53-.346.035.335c.024.178.013.356-.012.39m1.414-.167c.176.19.153.2-.354.2h-.553v-.791l.365.2c.2.112.436.29.542.391m21.822-.023v.446h-.671c-.424 0-.624-.044-.554-.1.2-.2 1.048-.78 1.143-.78.047-.012.082.19.082.434m1.225-.033.6.424-.518.033c-.719.056-.836-.022-.836-.48 0-.211.036-.39.07-.39.047 0 .342.19.684.413m-21.127 3.49a982.188 982.188 0 0 1-.884 3.667l-.07.268-.283-.257c-.165-.145-.377-.468-.483-.735l-.189-.48 1.331-2.954c.73-1.639 1.331-2.955 1.355-2.932.012.011-.33 1.56-.777 3.422m2.284-1.583c.389.859.389.859.189 1.305l-.2.446-.13-.446c-.212-.714-.73-2.932-.718-3.033.011-.1.282.446.86 1.728m-4.288-1.26c0 .023-.223.157-.483.29-.482.223-.506.223-.977.034-.801-.324-.754-.379.377-.379.6 0 1.083.022 1.083.055m26.086 3.802c-.483 2.085-.93 3.88-.978 3.99-.07.168-.177-.01-.471-.779-.212-.547-.377-1.037-.377-1.082 0-.044.542-1.293 1.19-2.787.66-1.482 1.236-2.82 1.296-2.965.329-.803.14.245-.66 3.623m3.25-.658c.718 1.583 1.354 2.988 1.413 3.122.095.245.083.256-.636.256h-.73l-.8-3.21c-.437-1.761-.802-3.256-.79-3.312.012-.2.212.201 1.543 3.144m-6.489-2.586c-.66.334-.66.334-1.425.011l-.636-.279h2.591l-.53.268ZM9.579 28.017c.012.122-.118.468-.271.78l-.283.557v-3.678l.283 1.059c.141.58.271 1.159.271 1.282m23.059 1.237c-.048 2.742-.106 3.556-.225 3.623-.188.111-1.377.256-1.46.178-.059-.056 1.625-7.324 1.708-7.324.023 0 .012 1.583-.023 3.523m-24.32-.323c-.035 2.173-.094 3.043-.188 3.043-.341-.011-1.13-.446-1.13-.635 0-.179 1.118-4.995 1.248-5.374.024-.089.07-.134.082-.111.024.022.012 1.416-.012 3.077m25.697-.401.648 2.608-.306.424c-.177.234-.46.523-.625.635l-.317.212-.071-2.018c-.094-2.408-.106-4.604-.024-4.526.036.022.354 1.226.695 2.665M10.992 26.7l-.012.759-.165-.38c-.141-.289-.153-.445-.047-.746.083-.211.153-.379.188-.379.024 0 .048.334.036.747m1.366 1.081.765 1.773-.27.446c-.142.245-.307.468-.377.49-.059.012-.295-.357-.495-.836-.342-.769-.388-1.014-.46-2.308-.046-.802-.046-1.427-.011-1.382.047.034.424.847.848 1.817m3.062 1.372c-.059.234-.13.256-.824.256-.425 0-.766-.033-.766-.078s.353-.802.8-1.694l.79-1.628.035 1.449c.012.802 0 1.56-.035 1.695m11.494-2.174a965.9 965.9 0 0 1-.73 2.397l-.518 1.705H22.52l.518-.546c.283-.301 1.273-1.382 2.215-2.397.942-1.003 1.742-1.84 1.79-1.84.047-.01-.024.302-.13.68m2.25 4.226c-.177.423-.366.758-.437.736-.058-.022-.235-.201-.377-.413-.259-.357-.27-.457-.259-2.72l.013-2.352.682 1.984.695 1.996-.318.77Zm-1.79-2.353v2.23h-.72c-.529 0-.706-.033-.659-.145.024-.078.33-1.081.684-2.229.34-1.148.635-2.085.66-2.085.023 0 .034 1.004.034 2.23M10.91 29.89c-.036.902-.071 1.627-.095 1.605-.024-.022-.224-.78-.447-1.706l-.4-1.661.235-.501.236-.502.27.557c.247.524.26.67.2 2.208m-6.712-1.205c-.036.736-.07.837-.27.837-.272 0-.272-.022-.037-.792.342-1.137.354-1.148.307-.045m1.154.692c0 .078-.106.145-.236.145-.212 0-.235-.067-.223-.87l.011-.859.224.725c.118.402.224.791.224.859m4.887 1.114c.189.758.307 1.405.26 1.439-.036.033-.39.089-.79.122l-.73.067.047-1.048c.047-.848.118-1.17.377-1.717.389-.791.365-.824.836 1.137m1.731.502c-.306.335-.376.223-.365-.557l.012-.747.27.557c.248.502.248.58.083.747m18.172 1.204c.153.39.259.736.235.77-.082.077-.978-.335-1.178-.547-.164-.167-.152-.245.13-.847.353-.747.259-.814.813.624m-14.78 2.787c.554.067 2.19.29 3.65.501 3.817.547 4.865.636 7.243.636 2.367 0 4.275-.19 6.819-.702.907-.178 1.66-.312 1.672-.29.059.045-1.048 1.661-1.284 1.873-.435.412-4.45.891-7.501.914-1.979 0-2.485-.045-5.476-.457-6.43-.914-9.374-1.093-12.33-.758-.884.089-1.66.19-1.732.2-.2.045-1.189-1.404-1.024-1.493.176-.09 2.39-.413 3.686-.536 1.272-.122 4.923-.055 6.277.112m-.613 3.4c.954.1 3.192.38 4.97.625 3.71.524 6.807.668 9.186.446.742-.067 1.65-.157 2.002-.19l.648-.056-.707.624c-.388.346-1.013.86-1.39 1.127l-.694.49h-2.108c-2.473 0-3.168-.067-8.055-.725-4.146-.568-6.407-.746-8.115-.658l-1.189.068-.872-.848c-.612-.58-.824-.858-.706-.892.612-.211 4.958-.211 7.03-.01m-.977 3.41c.777.057 3.003.335 4.946.603 1.944.267 4.193.546 5.005.613.813.077 1.496.156 1.508.167.024.022-.295.145-.718.267-3.063.892-6.313.88-9.222-.044-1.154-.357-3.026-1.193-3.52-1.55-.225-.167-.225-.167.176-.179.224 0 1.048.056 1.825.124" fill="#8d212c" fill-rule="evenodd" data-name="Trazado 136"></path><path d="M19.388 6.523c-.388.178-1.201 1.17-1.201 1.45 0 .077.212.267.46.434.494.301.6.513.6 1.248v.47l-.47-.324c-.613-.413-2.085-.792-3.133-.792-.955 0-2.238.402-4.464 1.372-.777.345-1.778.712-2.237.824-.742.19-.825.234-.825.48 0 .602 1.649.98 3.345.791 1.424-.167 2.214-.156 2.673.056.4.178 1.201 1.193 1.649 2.073.259.525.212.569-1.096 1.383-.53.334-1.071.735-1.212.902-.484.58-.165 1.483.53 1.483.164 0 .518-.1.765-.223 1.142-.546 2.084-.4 3.18.502.53.435.848.613 1.083.613.448 0 .565-.312.565-1.55 0-.601.06-1.036.153-1.147.095-.135.389-.19.99-.224.754-.033.895-.078 1.224-.368.201-.189.471-.557.613-.835.177-.335.388-.558.636-.67.212-.089.635-.423.942-.746.754-.77 1.154-.859 2.827-.692 1.13.112 1.354.112 1.977-.055 1.155-.324 2.886-1.439 2.886-1.862 0-.245.048-.234-1.319-.48-.565-.1-1.73-.423-2.59-.724-2.498-.87-4.417-1.126-5.57-.736-.248.09-.472.145-.484.134 0-.011-.106-.345-.224-.747-.294-1.025-.706-1.75-1.154-2.006-.46-.268-.612-.268-1.119-.034m1.178 1.26c.683 1.26 1.425 4.225 1.437 5.685.012 1.583-.519 2.23-1.825 2.23-.53 0-.707.044-.907.245-.295.301-.483 1.037-.495 1.862v.59l-.47-.39c-1.049-.902-2.31-1.137-3.487-.646-1.272.535-1.095.19.424-.825 2.379-1.595 3.698-2.843 4.251-4.025.79-1.65.719-4.08-.13-4.503-.293-.145-.293-.235.013-.602.412-.49.8-.368 1.19.378m-2.992 2.253c.353.122.813.379 1.036.557.33.279.4.413.4.769 0 .245-.129.68-.282.981-.365.68-1.413 1.873-1.743 1.962-.306.101-.46-.044-1.272-1.193-1.012-1.438-1.46-1.583-4.534-1.393-1.13.067-1.354.056-1.119-.056 2.826-1.27 4.216-1.783 5.123-1.906.6-.089 1.731.045 2.39.279m8.127-.056c.412.09 1.436.413 2.296.702.86.301 1.767.58 2.026.625l.46.078-.296.222c-.152.123-.564.346-.906.502-.613.257-.683.268-2.367.19-2.096-.1-2.379-.011-3.263.914-.329.345-.66.59-.718.557-.07-.044-.153-.423-.2-.847a14.687 14.687 0 0 0-.318-1.683c-.247-.993-.189-1.293.283-1.383.141-.033.365-.078.494-.111.365-.078 1.684.044 2.509.234" fill="#8d212c" fill-rule="evenodd" data-name="Trazado 137"></path><path d="M19.671 7.549c-.083.122.212.368.318.267.047-.033.082-.134.082-.223 0-.167-.306-.2-.4-.044" fill="#8d212c" fill-rule="evenodd" data-name="Trazado 138"></path><path d="M60.198 21.046V9.849h-4.111V7.376h11.382v2.473h-4.111v11.197h-3.16Zm9.16 0V7.376h6.015c2.997 0 5.023 1.63 5.023 4.314 0 1.63-.891 3.297-2.795 3.988l3.463 5.368h-3.463l-3.119-4.966h-1.985v4.966h-3.139Zm3.139-7.324h2.471c1.438 0 2.35-.71 2.35-1.955 0-1.4-.973-1.976-2.37-1.976h-2.451v3.931Zm10.31-6.346h3.14v13.67h-3.14V7.376Zm5.855 13.67V7.376h6.785c2.815 0 4.374 1.285 4.374 3.49 0 1.264-.607 2.396-2.106 2.99v.039c1.64.402 2.491 1.744 2.491 3.24 0 2.396-1.985 3.91-4.496 3.91h-7.048Zm3.159-2.435h3.12c1.296 0 2.085-.652 2.085-1.726 0-1.073-.749-1.63-2.086-1.63h-3.119v3.356Zm0-5.714h2.957c1.256 0 1.944-.632 1.944-1.61 0-1.016-.79-1.514-2.025-1.514h-2.876v3.124Zm16.24 8.379c-3.504 0-5.814-1.649-5.814-5.004V7.376h3.16v8.627c0 1.61.85 2.704 2.714 2.704 1.742 0 2.673-.92 2.673-2.704V7.376h3.12V16.1c0 3.335-2.472 5.176-5.854 5.176m8.47-.23V7.376h3.058l5.874 8.513h.04V7.376h2.978v13.67h-2.998l-5.954-8.685h-.04v8.685h-2.958Zm13.482 0 5.246-13.69h3.18l5.184 13.69h-3.281l-.972-2.742h-5.327l-.992 2.742h-3.038Zm4.84-5.157h3.706l-1.822-5.234h-.04l-1.844 5.234Zm10.337 5.157V7.376h3.14v11.158h6.947v2.512h-10.087Z" fill="#8d212c" fill-rule="evenodd" data-name="Trazado 139"></path><path d="M56.917 40.218v-13.67h10.329v2.512h-7.19v2.971h6.218v2.512h-6.218v3.164h7.25v2.511h-10.39Zm12.797 0v-13.67h3.139v11.159H79.8v2.511H69.714Zm11.946 0v-13.67h10.33v2.512h-7.191v2.971h6.218v2.512H84.8v3.164h7.251v2.511H81.66Zm17.973.23c-3.16 0-5.996-1.591-5.996-4.831v-4.256c0-3.298 2.735-5.043 5.914-5.043 2.775 0 5.692 1.4 5.692 4.506v.537h-2.978v-.27c0-1.59-1.478-2.242-2.694-2.242-1.316 0-2.794.67-2.794 2.415v4.257c0 1.514 1.296 2.397 2.876 2.397 1.215 0 2.612-.652 2.612-2.263v-.249h2.978v.536c0 3.106-2.816 4.506-5.61 4.506m10.922-.23V29.022h-4.112v-2.474h11.383v2.474h-4.112v11.196h-3.16Zm14.593.23c-3.18 0-6.016-1.572-6.016-4.87v-4.141c0-3.355 2.937-5.119 5.914-5.119 3.18 0 6.036 1.783 6.036 5.062v3.95c0 3.412-2.998 5.118-5.934 5.118m0-2.53c1.316 0 2.794-.71 2.794-2.455v-4.217c0-1.534-1.356-2.397-2.876-2.397-1.336 0-2.794.67-2.794 2.454v4.18c0 1.552 1.295 2.435 2.876 2.435m8.293 2.3v-13.67h6.015c2.998 0 5.023 1.63 5.023 4.314 0 1.63-.891 3.297-2.795 3.988l3.463 5.368h-3.463l-3.12-4.966h-1.984v4.966h-3.14Zm3.139-7.324h2.47c1.439 0 2.35-.71 2.35-1.955 0-1.4-.972-1.975-2.37-1.975h-2.45v3.93Zm9.156 7.324 5.245-13.689h3.18l5.185 13.69h-3.28l-.973-2.743h-5.327l-.992 2.742h-3.038Zm4.84-5.157h3.707l-1.823-5.234h-.04l-1.844 5.234Zm10.338 5.157v-13.67h3.139v11.159H171v2.511h-10.086Z" fill="#8d212c" fill-rule="evenodd" data-name="Trazado 140"></path><path d="M3.195 56.022v-4.618H5.29c1.012 0 1.676.563 1.676 1.47 0 .725-.492 1.483-1.642 1.483H4.255v1.665h-1.06Zm1.06-2.474h.877c.485 0 .793-.24.793-.66 0-.473-.328-.668-.8-.668h-.87v1.328Zm5.3 2.552c-1.074 0-2.032-.531-2.032-1.645v-1.4c0-1.133.992-1.729 1.998-1.729 1.074 0 2.039.602 2.039 1.71v1.334c0 1.153-1.013 1.73-2.005 1.73m0-.855c.445 0 .944-.24.944-.83v-1.424c0-.519-.458-.81-.972-.81-.45 0-.944.227-.944.83v1.411c0 .525.438.823.972.823m2.83.777v-4.618h1.963c1.074 0 1.957.602 1.957 1.658v1.263c0 1.12-.951 1.697-1.943 1.697h-1.978Zm1.06-.849h.862c.452 0 .937-.252.937-.816v-1.301c0-.505-.445-.804-.971-.804h-.828v2.921Zm3.684.85v-4.62h3.49v.85h-2.43v1.003h2.1v.849h-2.1v1.068h2.45v.85h-3.51Zm4.35 0v-4.62h2.033c1.013 0 1.697.551 1.697 1.458 0 .55-.301 1.114-.944 1.348l1.17 1.813h-1.17l-1.054-1.677h-.67v1.677H21.48Zm1.061-2.475h.835c.486 0 .794-.24.794-.66 0-.473-.329-.668-.801-.668h-.828v1.328Zm6.763 2.545c-1.102 0-1.786-.44-1.786-1.528v-.272h1.047v.213c0 .344.11.726.753.726.458 0 .663-.37.663-.784v-3.044h1.068v3.122c0 .842-.65 1.567-1.745 1.567m4.585.007c-1.183 0-1.963-.557-1.963-1.69v-3.006h1.067v2.915c0 .544.288.913.917.913.589 0 .903-.311.903-.913v-2.915h1.054v2.947c0 1.127-.835 1.749-1.978 1.749m2.89-.078v-4.618h1.963c1.074 0 1.957.602 1.957 1.658v1.263c0 1.12-.951 1.697-1.943 1.697h-1.977Zm1.06-.849h.862c.451 0 .938-.252.938-.816v-1.301c0-.505-.445-.804-.972-.804h-.828v2.921Zm3.684-3.77h1.06v4.619h-1.06v-4.618Zm3.907 4.697c-1.067 0-2.025-.538-2.025-1.632V53.03c0-1.115.924-1.704 1.998-1.704.937 0 1.923.473 1.923 1.522v.182h-1.006v-.09c0-.538-.5-.76-.91-.76-.444 0-.944.228-.944.817v1.438c0 .512.438.81.971.81.41 0 .883-.22.883-.764v-.085h1.006v.182c0 1.05-.951 1.522-1.896 1.522m2.683-4.696h1.06v4.618h-1.06v-4.618Zm1.615 4.618 1.772-4.625h1.074l1.752 4.625h-1.108l-.329-.926h-1.8l-.334.926h-1.027Zm1.635-1.742h1.253l-.616-1.768h-.014l-.623 1.768Zm3.52 1.742v-4.618h1.061v3.77h2.346v.848h-3.407Zm5.72 0v-4.618h1.965c1.074 0 1.957.602 1.957 1.658v1.263c0 1.12-.951 1.697-1.943 1.697h-1.978Zm1.062-.849h.862c.452 0 .937-.252.937-.816v-1.301c0-.505-.444-.804-.971-.804h-.828v2.921Zm3.684.85v-4.62h3.49v.85h-2.43v1.003h2.101v.849h-2.1v1.068h2.449v.85h-3.51Zm6.008 0v-4.62h1.06v3.77h2.348v.85h-3.408Zm3.834 0 1.773-4.626h1.074l1.751 4.625H78.68l-.329-.926h-1.799l-.336.926H75.19Zm1.636-1.743h1.251l-.615-1.768h-.014l-.622 1.768Zm7.079 1.82c-1.067 0-2.025-.538-2.025-1.632V53.03c0-1.115.923-1.704 1.997-1.704.938 0 1.923.473 1.923 1.522v.182h-1.005v-.09c0-.538-.5-.76-.91-.76-.445 0-.945.228-.945.817v1.438c0 .512.438.81.972.81.41 0 .883-.22.883-.764v-.085H85.8v.182c0 1.05-.95 1.522-1.895 1.522m2.682-4.696h1.06v4.618h-1.06v-4.618Zm3.935 4.696c-1.184 0-1.963-.557-1.963-1.69v-3.006h1.067v2.915c0 .544.287.913.917.913.588 0 .903-.311.903-.913v-2.915H92.5v2.947c0 1.127-.835 1.749-1.978 1.749m2.889-.078v-4.618h1.964c1.074 0 1.957.602 1.957 1.658v1.263c0 1.12-.952 1.697-1.943 1.697H93.41Zm1.06-.849h.863c.452 0 .937-.252.937-.816v-1.301c0-.505-.445-.804-.972-.804h-.828v2.921Zm3.161.85 1.772-4.626h1.074l1.752 4.625h-1.108l-.329-.926h-1.8l-.334.926h-1.027Zm1.635-1.743h1.253l-.616-1.768h-.014l-.623 1.768Zm3.52 1.742v-4.618h1.963c1.075 0 1.958.602 1.958 1.658v1.263c0 1.12-.951 1.697-1.944 1.697h-1.977Zm1.06-.849h.863c.451 0 .937-.252.937-.816v-1.301c0-.505-.445-.804-.972-.804h-.827v2.921Zm5.343.85v-4.62h1.964c1.074 0 1.957.603 1.957 1.66v1.262c0 1.12-.951 1.697-1.944 1.697h-1.977Zm1.06-.85h.862c.452 0 .938-.252.938-.816v-1.301c0-.505-.445-.804-.972-.804h-.827v2.921Zm3.685.85v-4.62h3.49v.85h-2.43v1.003h2.101v.849h-2.1v1.068h2.449v.85h-3.51Zm6.008 0v-4.62h2.292c.951 0 1.478.435 1.478 1.18 0 .427-.205.81-.712 1.01v.013c.555.136.842.59.842 1.095 0 .81-.67 1.321-1.52 1.321h-2.38Zm1.067-.824h1.054c.438 0 .705-.22.705-.583 0-.362-.253-.55-.705-.55h-1.054V55.2Zm0-1.93h1c.424 0 .656-.213.656-.544 0-.343-.266-.512-.684-.512h-.972v1.056Zm5.514 2.83c-1.184 0-1.964-.556-1.964-1.69v-3.005h1.068v2.915c0 .544.287.913.916.913.589 0 .903-.311.903-.913v-2.915h1.054v2.947c0 1.127-.834 1.749-1.977 1.749m2.889-.078v-4.618h3.49v.848h-2.43v1.004h2.101v.849h-2.1v1.068h2.449v.85h-3.51Zm4.35 0v-4.618h1.034l1.984 2.876h.014v-2.876h1.005v4.618h-1.012l-2.012-2.934h-.014v2.934h-.999Zm6.881.078c-1.074 0-2.032-.531-2.032-1.645v-1.4c0-1.133.992-1.729 1.999-1.729 1.074 0 2.039.602 2.039 1.71v1.334c0 1.153-1.013 1.73-2.006 1.73m0-.855c.445 0 .944-.24.944-.83v-1.424c0-.519-.458-.81-.97-.81-.452 0-.945.227-.945.83v1.411c0 .525.438.823.971.823m4.513.848c-.876 0-1.663-.285-2.018-.984l.8-.48c.212.389.677.641 1.204.641.431 0 .863-.148.863-.524 0-.31-.267-.44-.61-.53l-.835-.202c-.65-.156-1.163-.48-1.163-1.256 0-.868.794-1.432 1.807-1.432.834 0 1.389.227 1.765.823l-.766.473c-.22-.344-.609-.48-1.033-.48-.376 0-.726.143-.726.506 0 .297.315.414.684.511l.808.194c.637.15 1.143.512 1.143 1.283 0 .926-.883 1.457-1.923 1.457m3.922-.07 1.772-4.626h1.074l1.752 4.625h-1.109l-.328-.926h-1.8l-.335.926h-1.026Zm1.635-1.743h1.252l-.616-1.768h-.013l-.623 1.768Zm3.52-2.876h1.06v4.618h-1.06v-4.618Zm2.005 4.618v-4.618h2.032c1.013 0 1.697.55 1.697 1.457 0 .55-.301 1.114-.944 1.348l1.17 1.813h-1.17l-1.054-1.677h-.67v1.677h-1.061Zm1.06-2.474h.835c.486 0 .794-.24.794-.66 0-.473-.329-.668-.801-.668h-.827v1.328Zm3.51 2.474v-4.618h3.49v.848h-2.429v1.004h2.101v.849h-2.1v1.068h2.449v.85h-3.51Zm5.921.071c-.876 0-1.663-.285-2.018-.984l.8-.48c.212.389.678.641 1.204.641.432 0 .863-.148.863-.524 0-.31-.267-.44-.61-.53l-.834-.202c-.65-.156-1.163-.48-1.163-1.256 0-.868.793-1.432 1.806-1.432.835 0 1.389.227 1.766.823l-.767.473c-.219-.344-.609-.48-1.033-.48-.376 0-.726.143-.726.506 0 .297.315.414.685.511l.807.194c.637.15 1.143.512 1.143 1.283 0 .926-.883 1.457-1.923 1.457" fill="#8d212c" fill-rule="evenodd" data-name="Trazado 141"></path></g><defs><clipPath id="a"><path d="M0 0h171v56.1H0V0z" data-name="Rect&#xE1;ngulo 104"></path></clipPath></defs></svg>